<?xml version="1.0" encoding="utf-8"?><svg viewBox="0 0 138 30" xmlns="http://www.w3.org/2000/svg" xmlns:xlink="http://www.w3.org/1999/xlink"><style>:root>svg{display:none}:root>svg:target{display:block}</style><svg fill="none" viewBox="0 0 20 20" id="check-circle-dark" xmlns="http://www.w3.org/2000/svg"><path opacity=".1" d="M10 0C4.477 0 0 4.477 0 10s4.477 10 10 10 10-4.477 10-10C19.994 4.48 15.52.006 10 0Z" fill="#fff"/><path d="m15.772 6.833-5.704 7.741a.843.843 0 0 1-1.191.157l-4.074-3.257a.834.834 0 0 1 1.042-1.302l3.397 2.718 5.189-7.042a.833.833 0 1 1 1.341.985Z" fill="#fff"/></svg><svg fill="none" viewBox="0 0 20 20" id="check-circle-light" xmlns="http://www.w3.org/2000/svg"><path d="M10 0C4.477 0 0 4.477 0 10s4.477 10 10 10 10-4.477 10-10C19.994 4.48 15.52.006 10 0Z" fill="#5243C2" fill-opacity=".15"/><path d="m15.773 6.833-5.705 7.741a.843.843 0 0 1-1.191.157l-4.074-3.257a.834.834 0 0 1 1.042-1.302l3.397 2.718 5.189-7.042a.833.833 0 1 1 1.342.985Z" fill="#7B72C1"/></svg><svg fill="none" viewBox="0 0 138 30" id="logo-frame" xmlns="http://www.w3.org/2000/svg"><path d="M.369 0v9.35H1.98V1.611h19.361v17.097a9.68 9.68 0 0 1-13.386 8.945 9.683 9.683 0 0 1-5.976-8.945v-1.34H8.05v1.34a3.608 3.608 0 1 0 7.217 0V7.684H8.051V9.35h5.552v9.358a1.943 1.943 0 0 1-3.886 0v-3.007H.368v3.007a11.292 11.292 0 0 0 22.584 0V0H.37Z" fill="#231D4F"/><path d="M11.662 23.704a5.002 5.002 0 0 1-4.998-4.997H5a6.661 6.661 0 0 0 13.322 0V4.63H3.056v4.72h1.663V6.292h11.937v12.413a5 5 0 0 1-4.994 4.998Z" fill="#BB6BD9"/><path d="M40.736 22.993c-.578.84-1.278 1.4-2.1 1.68-.802.261-1.689.317-2.66.168a14.92 14.92 0 0 1-3.024-.756l.924-3.276c.598.242 1.186.42 1.764.532.598.093 1.12.102 1.568.028.654-.093 1.055-.523 1.204-1.288.15-.765.224-1.783.224-3.052V5.185h3.276v11.844c0 1.344-.084 2.51-.252 3.5-.168.99-.476 1.81-.924 2.464ZM48.755 24.925c-1.418-.075-2.492-.476-3.22-1.204-.728-.747-1.092-1.773-1.092-3.08 0-.952.243-1.764.728-2.436a4.987 4.987 0 0 1 1.932-1.624 7.687 7.687 0 0 1 2.66-.728 9.585 9.585 0 0 1 2.996.196v-.868c0-.597-.242-1.027-.728-1.288-.485-.261-1.082-.383-1.792-.364-.69.018-1.39.159-2.1.42-.69.242-1.25.597-1.68 1.064l-1.876-2.044a7.705 7.705 0 0 1 2.52-1.624 9.304 9.304 0 0 1 2.996-.672 8.015 8.015 0 0 1 2.94.364c.934.298 1.699.784 2.296 1.456.467.522.728 1.213.784 2.072.056.859.084 1.801.084 2.828v7.392h-3.416v-1.288a5.019 5.019 0 0 1-1.932 1.148 6.85 6.85 0 0 1-2.1.28Zm3.92-4.088v-2.408c-1.941-.15-3.294-.028-4.06.364-.746.392-1.12.998-1.12 1.82 0 .523.178.905.532 1.148.374.224.831.336 1.372.336.56-.019 1.13-.13 1.708-.336a5.045 5.045 0 0 0 1.568-.924ZM62.273 24.533a5.057 5.057 0 0 1-2.016-1.624 7.868 7.868 0 0 1-1.176-2.492 11.412 11.412 0 0 1-.364-2.884c0-1.288.233-2.455.7-3.5.466-1.045 1.148-1.876 2.044-2.492.914-.635 2.034-.952 3.36-.952.43 0 .924.046 1.484.14.578.093 1.045.27 1.4.532V5.185h3.36v19.6h-3.36v-1.12c-.318.373-.803.672-1.456.896a6.87 6.87 0 0 1-2.072.308c-.71.018-1.344-.093-1.904-.336Zm5.432-3.668v-6.44c-.97-.392-1.886-.523-2.744-.392-.84.13-1.53.495-2.072 1.092-.523.579-.784 1.381-.784 2.408 0 1.213.261 2.174.784 2.884.522.69 1.204 1.092 2.044 1.204.858.093 1.782-.159 2.772-.756ZM96.62 10.785l-4.76 14h-4.087l-2.94-9.436-2.912 9.436h-4.088l-4.788-14h3.78l3.024 10.304 3.248-10.304h3.5l3.248 10.276 2.996-10.276h3.78ZM101.775 24.925c-1.419-.075-2.492-.476-3.22-1.204-.728-.747-1.092-1.773-1.092-3.08 0-.952.243-1.764.728-2.436a4.986 4.986 0 0 1 1.932-1.624 7.686 7.686 0 0 1 2.66-.728 9.586 9.586 0 0 1 2.996.196v-.868c0-.597-.243-1.027-.728-1.288-.485-.261-1.083-.383-1.792-.364a6.564 6.564 0 0 0-2.1.42c-.691.242-1.25.597-1.68 1.064l-1.876-2.044a7.703 7.703 0 0 1 2.52-1.624 9.303 9.303 0 0 1 2.996-.672 8.017 8.017 0 0 1 2.94.364c.933.298 1.699.784 2.296 1.456.467.522.728 1.213.784 2.072.056.859.084 1.801.084 2.828v7.392h-3.416v-1.288a5.024 5.024 0 0 1-1.932 1.148 6.847 6.847 0 0 1-2.1.28Zm3.92-4.088v-2.408c-1.941-.15-3.295-.028-4.06.364-.747.392-1.12.998-1.12 1.82 0 .523.177.905.532 1.148.373.224.831.336 1.372.336a5.654 5.654 0 0 0 1.708-.336 5.05 5.05 0 0 0 1.568-.924ZM115.376 24.785h-3.36v-19.6h3.36v19.6ZM120.213 9.133c-.579 0-1.064-.196-1.456-.588-.392-.392-.588-.877-.588-1.456 0-.56.196-1.036.588-1.428.392-.392.877-.588 1.456-.588.56 0 1.036.196 1.428.588.392.392.588.868.588 1.428 0 .579-.196 1.064-.588 1.456a1.944 1.944 0 0 1-1.428.588Zm1.54 15.652h-3.08v-14h3.08v14ZM137.632 24.785h-3.36v-8.176c0-.766-.149-1.335-.448-1.708a2.004 2.004 0 0 0-1.064-.784 3.963 3.963 0 0 0-1.204-.196c-.373 0-.812.065-1.316.196-.485.13-.915.392-1.288.784-.373.373-.56.943-.56 1.708v8.176h-3.36v-14h3.36v1.008c.317-.43.812-.728 1.484-.896a7.218 7.218 0 0 1 1.932-.28c1.195 0 2.221.252 3.08.756a5.086 5.086 0 0 1 2.016 2.1c.485.896.728 1.941.728 3.136v8.176Z" fill="#231D4F"/></svg><svg viewBox="0 0 23 15" fill="none" id="menu-icon" xmlns="http://www.w3.org/2000/svg"><path d="M15 15H0v-2.5h15V15Zm7.5-6.25H0v-2.5h22.5v2.5ZM15 2.5H0V0h15v2.5Z" fill="#231D4F"/></svg></svg>